<svg xmlns="http://www.w3.org/2000/svg" viewBox="0 0 1200 750" width="1200" height="750" preserveAspectRatio="xMidYMid slice">
<defs>
  <pattern id="hatch" width="10" height="10" patternUnits="userSpaceOnUse" patternTransform="rotate(45)"><line x1="0" y1="0" x2="0" y2="10" stroke="#8d8a83" stroke-width="1.4" opacity="0.8"/></pattern>
  <pattern id="hatchSignal" width="9" height="9" patternUnits="userSpaceOnUse" patternTransform="rotate(-45)"><line x1="0" y1="0" x2="0" y2="9" stroke="#e3a82b" stroke-width="1.5" opacity="0.95"/></pattern>
  <pattern id="dots" width="12" height="12" patternUnits="userSpaceOnUse"><circle cx="2" cy="2" r="1.1" fill="#8d8a83" opacity="0.5"/></pattern>
</defs>
<rect width="1200" height="750" fill="#111315"/>
<g stroke="rgba(236,235,230,0.045)" stroke-width="1"><line x1="0" y1="0" x2="0" y2="750"/><line x1="30" y1="0" x2="30" y2="750"/><line x1="60" y1="0" x2="60" y2="750"/><line x1="90" y1="0" x2="90" y2="750"/><line x1="120" y1="0" x2="120" y2="750"/><line x1="150" y1="0" x2="150" y2="750"/><line x1="180" y1="0" x2="180" y2="750"/><line x1="210" y1="0" x2="210" y2="750"/><line x1="240" y1="0" x2="240" y2="750"/><line x1="270" y1="0" x2="270" y2="750"/><line x1="300" y1="0" x2="300" y2="750"/><line x1="330" y1="0" x2="330" y2="750"/><line x1="360" y1="0" x2="360" y2="750"/><line x1="390" y1="0" x2="390" y2="750"/><line x1="420" y1="0" x2="420" y2="750"/><line x1="450" y1="0" x2="450" y2="750"/><line x1="480" y1="0" x2="480" y2="750"/><line x1="510" y1="0" x2="510" y2="750"/><line x1="540" y1="0" x2="540" y2="750"/><line x1="570" y1="0" x2="570" y2="750"/><line x1="600" y1="0" x2="600" y2="750"/><line x1="630" y1="0" x2="630" y2="750"/><line x1="660" y1="0" x2="660" y2="750"/><line x1="690" y1="0" x2="690" y2="750"/><line x1="720" y1="0" x2="720" y2="750"/><line x1="750" y1="0" x2="750" y2="750"/><line x1="780" y1="0" x2="780" y2="750"/><line x1="810" y1="0" x2="810" y2="750"/><line x1="840" y1="0" x2="840" y2="750"/><line x1="870" y1="0" x2="870" y2="750"/><line x1="900" y1="0" x2="900" y2="750"/><line x1="930" y1="0" x2="930" y2="750"/><line x1="960" y1="0" x2="960" y2="750"/><line x1="990" y1="0" x2="990" y2="750"/><line x1="1020" y1="0" x2="1020" y2="750"/><line x1="1050" y1="0" x2="1050" y2="750"/><line x1="1080" y1="0" x2="1080" y2="750"/><line x1="1110" y1="0" x2="1110" y2="750"/><line x1="1140" y1="0" x2="1140" y2="750"/><line x1="1170" y1="0" x2="1170" y2="750"/><line x1="1200" y1="0" x2="1200" y2="750"/><line x1="0" y1="0" x2="1200" y2="0"/><line x1="0" y1="30" x2="1200" y2="30"/><line x1="0" y1="60" x2="1200" y2="60"/><line x1="0" y1="90" x2="1200" y2="90"/><line x1="0" y1="120" x2="1200" y2="120"/><line x1="0" y1="150" x2="1200" y2="150"/><line x1="0" y1="180" x2="1200" y2="180"/><line x1="0" y1="210" x2="1200" y2="210"/><line x1="0" y1="240" x2="1200" y2="240"/><line x1="0" y1="270" x2="1200" y2="270"/><line x1="0" y1="300" x2="1200" y2="300"/><line x1="0" y1="330" x2="1200" y2="330"/><line x1="0" y1="360" x2="1200" y2="360"/><line x1="0" y1="390" x2="1200" y2="390"/><line x1="0" y1="420" x2="1200" y2="420"/><line x1="0" y1="450" x2="1200" y2="450"/><line x1="0" y1="480" x2="1200" y2="480"/><line x1="0" y1="510" x2="1200" y2="510"/><line x1="0" y1="540" x2="1200" y2="540"/><line x1="0" y1="570" x2="1200" y2="570"/><line x1="0" y1="600" x2="1200" y2="600"/><line x1="0" y1="630" x2="1200" y2="630"/><line x1="0" y1="660" x2="1200" y2="660"/><line x1="0" y1="690" x2="1200" y2="690"/><line x1="0" y1="720" x2="1200" y2="720"/><line x1="0" y1="750" x2="1200" y2="750"/></g><line x1="60" y1="600" x2="1140" y2="600" stroke="#5b6066" stroke-width="2"/><g fill="none" stroke="#d8d3c8" stroke-width="3" stroke-linejoin="round" stroke-linecap="round"><rect x="260" y="530" width="640" height="70" rx="35"/><circle cx="295" cy="565" r="20"/><circle cx="365" cy="565" r="20"/><circle cx="435" cy="565" r="20"/><circle cx="505" cy="565" r="20"/><circle cx="575" cy="565" r="20"/><circle cx="645" cy="565" r="20"/><circle cx="715" cy="565" r="20"/><circle cx="785" cy="565" r="20"/><circle cx="855" cy="565" r="20"/><line x1="290" y1="530" x2="870" y2="530" stroke="#e3a82b" stroke-width="3"/><path d="M240,530 L240,440 L940,440 L940,530 Z"/><path d="M300,440 L260,260 L560,260 L520,440 Z"/><path d="M285,300 L545,300" stroke="#e3a82b" stroke-width="2"/><rect x="560" y="330" width="170" height="110"/><circle cx="645" cy="385" r="34" stroke="#e3a82b"/><path d="M720,470 L1110,330 L1120,352 L735,495"/><line x1="770" y1="460" x2="780" y2="490"/><line x1="828" y1="439" x2="838" y2="469"/><line x1="886" y1="418" x2="896" y2="448"/><line x1="944" y1="397" x2="954" y2="427"/><line x1="1002" y1="376" x2="1012" y2="406"/><line x1="1060" y1="355" x2="1070" y2="385"/></g><g stroke="#8d8a83" stroke-width="1.2"><line x1="170" y1="660" x2="1030" y2="660"/><line x1="170" y1="645" x2="170" y2="675"/><line x1="1030" y1="645" x2="1030" y2="675"/><path d="M170,660 l14,-6 v12 z M1030,660 l-14,-6 v12 z" fill="#8d8a83"/></g><text x="560" y="690" font-family="ui-monospace,SFMono-Regular,Menlo,Consolas,monospace" font-size="16" fill="#d8d3c8">14 900</text>
</svg>
